<?xml version="1.0" encoding="utf-8"?>
<!-- Generator: Adobe Illustrator 22.0.1, SVG Export Plug-In . SVG Version: 6.00 Build 0)  -->
<svg version="1.1" id="Lager_1" xmlns="http://www.w3.org/2000/svg" xmlns:xlink="http://www.w3.org/1999/xlink" x="0px" y="0px"
	 viewBox="0 0 300 300" style="enable-background:new 0 0 300 300;" xml:space="preserve">
<style type="text/css">
	.st0{
		fill: rgba(255, 255, 255, 1);
	}
</style>
<g>
	<path class="st0" d="M151.9,158.4c5.1,5.3,9.6,10.1,12.3,15.3c2-6.4,5.3-12,9.7-16.7c-6.1-3.3-11.5-8.9-15.6-16.4
		c-4.7-8.6-7.4-18.9-7.5-29c-2.2-1.2-4.8-2.1-7.5-3c-7.9-2.6-16.9-5.6-20.4-19c-0.1,1.5-0.1,3-0.1,4.6c0,20.1,7.3,39.5,20.6,54.7
		C146.1,152.3,149,155.4,151.9,158.4z"/>
	<path class="st0" d="M124.9,89.6c3.3,11.8,11.3,14.4,18.9,17c3,1,5.8,1.9,8.3,3.4l0.5,0.3l0,0.6c0.1,22.1,11.1,38.6,22.6,44.5
		c0.7-0.7,1.4-1.3,2.1-1.9c-0.9-16.4,6.1-35.1,17.6-46l0.6-0.5l0.7,0.4c5.2,3.2,11.2,5.8,17.2,7.5c0,0,0,0,0,0l0,0
		c0.1,0,0.1,0,0.2,0.1c1.8-1.1,3.3-2,4.3-2.6c2.4-1.5,4-1.3,4.9-1.2l0.8,0.1l0.1,0.7c0.3,1.6,0.5,3.4,0.6,5.2
		c7.4,0.9,14.4,0.6,20-1.3c-2.1-22.1-11.7-43.6-25.7-57.5l-0.8-0.8l0.8-0.7c10.8-9.2,28.1-13.6,38.9-12.4
		c-11.8-18.9-38.8-30.3-49.4-33c3.4,11.7,3.4,30.8-1.8,40.1l-0.2,0.3l-0.3,0.1c-9,3.7-20,0.5-26.6-1.5c-0.9-0.3-1.6-0.5-2.3-0.7
		c-4.1,8.8-2.7,20.5-1.6,30c0.4,2.9,0.7,5.6,0.8,8l0,0.5l-0.4,0.3C170.2,93.2,146,96.5,124.9,89.6z"/>
	<path class="st0" d="M177.2,244.4c6.2,9.6,16.9,15.5,28.7,15.5c11.5,0,22.3-6,28.6-15.4c-7.7,6.6-17.7,10.6-28.6,10.6
		C194.9,255.1,184.9,251,177.2,244.4z"/>
	<path class="st0" d="M207.9,242.3c-0.6,0-1.2,0-1.8,0l-0.2-4.1c0,0,0,0-0.1,0c-19.1-0.8-35.8-15.1-41.6-33.6c0,0.5,0.1,0.9,0.2,1.4
		c0.4,2.8,1.1,5.7,2.1,8.4c2,5.4,5,10.4,8.8,14.7c3.9,4.3,8.5,7.8,13.7,10.4c5.2,2.5,10.9,4.2,16.7,4.9c-5.9,0.2-11.9-1-17.4-3.4
		c-5.5-2.4-10.5-6.1-14.5-10.5c-2-2.2-3.9-4.6-5.4-7.2s-2.8-5.4-3.8-8.2c-0.2-0.4-0.3-0.9-0.4-1.3c1.3,21.9,19.5,39.3,41.7,39.3
		c23,0,41.8-18.8,41.8-41.8c0-0.5,0-0.9-0.1-1.2c-1.1,3.4-2.7,6.7-4.7,9.7C237.3,233.1,224.1,242.3,207.9,242.3z M207.9,249.6
		c-0.6,0-1.2,0-1.8,0l-0.2-4.7h0.1h0.1c16.2,0,30.3-8.3,38.3-21C239.8,238.9,225.7,249.6,207.9,249.6z"/>
	<path class="st0" d="M177.6,156.5c0-0.2,0-0.3,0-0.5c-0.1,0.1-0.2,0.2-0.3,0.3C177.3,156.4,177.5,156.5,177.6,156.5z"/>
	<path class="st0" d="M191.9,164.3c-1.5-5.2-3-10.3-3.9-15.3c-3.1,1.5-6,3.3-8.6,5.4c0.1,0.8,0.2,1.5,0.2,2.2l0.4,0.4
		C182.8,159.6,187.3,162.3,191.9,164.3z"/>
	<path class="st0" d="M219.5,119.5c-6.6,4.4-19.7,12.7-26,16.4c-1.7,1.1-3.2,1.1-4.1,1.2c-0.2,0-0.3,0-0.4,0c-0.2,2.8,0,5.8,0.5,9
		c5.1-2,10.6-3.2,16.4-3.2c4.6,0,9.1,0.7,13.3,2.1c1.8-9.1,3.1-18.1,2.8-26.2c-0.5-0.1-0.9-0.2-1.4-0.2
		C220.3,118.9,219.9,119.2,219.5,119.5z"/>
	<path class="st0" d="M64.8,269.8c-1.3,0.9-3.3,3-3.9,4.1c1.2,1,3.6,2,5.3,2.3c-0.2-0.8-0.3-1.5-0.5-2.3
		C65.4,272.5,65.1,271.1,64.8,269.8z"/>
	<path class="st0" d="M124.9,261.5c-10.6-1.3-29.3-7.4-39.2-12.2c0.8,7.6,8.6,29,17.6,37.8C110.5,281.4,121.8,267.9,124.9,261.5z"/>
	<path class="st0" d="M34.9,235c2.2-3.7,4.9-11.8,5.3-15.6c-5.4,0.4-17.5-0.7-25-2.4C19.6,223.2,30,232.3,34.9,235z"/>
	<path class="st0" d="M82.2,170.4c-8.9,3.4-19.6,6.4-30.8,9.4c8,6.8,14.8,10.5,21.8,11.9c2.7-0.8,9.7-4.1,14.2-6.4
		c-2.7-5.2-3.7-9.2-4.8-13.4C82.5,171.5,82.4,171,82.2,170.4z"/>
	<path class="st0" d="M77.3,192.3c4.6,0.3,10.9,0.3,14.1-0.3c0.2-1.1,0.1-4.2-0.2-6.4C88.3,187.2,81.8,190.3,77.3,192.3z"/>
	<path class="st0" d="M187.6,133.3c0.3-1.2,1.1-2.5,4.1-4.5c4.8-3.1,12.8-8.2,19.4-12.4c-5.4-1.7-10.7-4-15.4-6.8
		c-10.5,10.2-16.9,27.2-16.5,42.4c2.6-2,5.4-3.6,8.3-5C186.8,142,186.6,137.3,187.6,133.3z"/>
	<path class="st0" d="M220.7,147.7c-0.7,3.3-1.4,6.6-2.1,9.9c-2.3,10.9-4.5,21.3-4.5,29.3h-2c0-8.2,2.2-18.7,4.6-29.7
		c0.7-3.4,1.4-6.7,2.1-10.1c-4.1-1.3-8.4-2.1-12.9-2.1c-5.6,0-11.1,1.1-16,3.2c1.1,5.7,2.8,11.8,4.5,17.5c2.4,8,4.6,15.6,4.6,21.2
		h-2c0-5.2-2.1-12.4-4.4-20.1c-4.9-2-9.8-4.8-13-7.5l0,0c-2,3.6-3,12.4-1.8,17.3l-1.9,0.5c-1.2-4.8-0.5-13.9,1.8-18.4
		c-0.7-0.2-1.3-0.5-2-0.8c-4.9,5.1-8.5,11.4-10.3,18.6c0.2,0.6,0.5,1.3,0.6,2c0.1,0.6,0.3,1.2,0.5,1.7l0.1,0.2
		c0,0.1,0.1,0.2,0.1,0.4c5.2,17.4,20.8,29.1,39,29.1c18.2,0,33.8-11.7,39-29.1c0-0.1,0.1-0.2,0.1-0.3v-0.1l0.1-0.2
		c0.1-0.3,0.2-0.6,0.2-0.8c0.1-0.3,0.2-0.6,0.3-1c0.3-0.9,0.6-1.8,0.9-2.6l0,0C242.6,162.6,232.9,152.4,220.7,147.7z"/>
	<path class="st0" d="M268.1,148.9c13.3-15.1,20.6-34.5,20.6-54.8c0-42.6-32.2-77.8-73.6-82.5c13.4,4.9,35.5,16.5,45.1,33.7l1.1,1.9
		l-2.1-0.4c-9.8-1.9-27.4,2-38.5,11c14,14.3,23.5,36,25.6,58.3c3.8,3.2,8.9,10.2,11.6,14.1l-1.7,1.1c-4.4-6.5-8.4-11.4-11.1-13.6
		c-5.8,2-13.2,2.4-20.9,1.4c0.2,8.3-1.2,17.4-2.9,26.6c12.3,4.6,22.2,14.6,26.4,27.4c2.7-5,7.1-9.6,12-14.8
		C262.4,155.3,265.3,152.3,268.1,148.9z M254.3,153.3c-2.4,2.6-5,5.3-7.2,7.9c-0.7,0.8-1.6,1.2-2.7,1.2c-0.8,0-1.6-0.3-2.3-0.8
		c-1.5-1.3-1.7-3.5-0.4-5c2.4-2.8,5-5.6,7.5-8.2c1.3-1.4,3.6-1.5,5-0.1C255.6,149.6,255.7,151.9,254.3,153.3z M257.4,139.4
		c11-12.5,17-28.6,17-45.3c0-1.9,1.6-3.5,3.5-3.5c1.9,0,3.5,1.6,3.5,3.5c0,18.4-6.7,36.1-18.8,49.9c-0.6,0.8-1.6,1.3-2.6,1.3
		c-0.8,0-1.7-0.3-2.3-0.9C256.2,143.1,256.1,140.9,257.4,139.4z"/>
	<path class="st0" d="M241.4,210.7c-0.1,0.1-0.2,0.3-0.3,0.4C241.2,211,241.3,210.8,241.4,210.7z"/>
	<path class="st0" d="M218.8,114.2c-0.7,0.4-1.6,0.9-2.6,1.6c1.2,0.3,2.5,0.6,3.7,0.8c0.5-0.5,0.8-0.9,1-1.3
		c0.3-0.4,0.5-0.8,0.9-1.1c0-0.3-0.1-0.7-0.1-1C221.1,113.2,220.1,113.3,218.8,114.2z"/>
	<path class="st0" d="M246,202.9c-1.2,2.7-2.7,5.2-4.5,7.5c1-1.3,2-2.7,2.9-4.1c-4.6,15.5-18.7,26.6-36.5,26.6c-0.6,0-1.2,0-1.8,0
		l-0.2-4.4c-2.3-0.1-4.7-0.4-6.9-0.9c-9.3-2-17.8-7.5-23.4-15c6.9,6.2,14.9,11,23.8,13c2.2,0.5,4.5,0.7,6.7,0.8l3.4-0.2
		c0.6,0,1.1-0.1,1.7-0.2l1.7-0.3c4.4-0.8,8.8-2.2,12.8-4.3c8-4.3,14.5-11.1,18.3-19.3c1.9-4.1,3.1-8.5,3.7-13
		c0.1-1.1,0.3-2.2,0.3-3.4c0-1.1-0.1-2.3-0.2-3.4c-0.1-1.2-0.3-2.4-0.5-3.5c0,0.1,0,0.1-0.1,0.2c-0.1,0.3-0.2,0.6-0.2,0.9
		c-0.1,0.3-0.1,0.6-0.2,0.9c0,0.2-0.1,0.3-0.1,0.4l0,0.1c-5.4,18.3-21.9,30.6-41,30.6c-19.1,0-35.6-12.3-41-30.6l0-0.2
		c0-0.1-0.1-0.2-0.1-0.2c0,0,0-0.1,0-0.1c-0.3,2.1-0.5,4.2-0.5,6.1v3.9c0,23.7,19.2,44.5,41.8,45.5c11.4,0.5,22-3.4,29.8-11
		c7.3-7,11.4-16.4,11.9-26.6C247.2,200.1,246.6,201.5,246,202.9z M241.5,198.4c-5.5,14.3-19.4,24.3-35.5,24.4l-0.4-7.3
		C219.8,215.5,232.9,208.9,241.5,198.4z"/>
	<path class="st0" d="M189.6,133.8c-0.1,0.4-0.2,0.9-0.3,1.3c0,0,0.1,0,0.1,0c0.8,0,1.8-0.1,3.1-0.9c6.2-3.7,18.8-11.7,25.5-16.1
		c-1.4-0.3-2.8-0.7-4.2-1c-6.9,4.3-15.7,10-20.9,13.3C190.3,132.1,189.8,133,189.6,133.8z"/>
	<path d="M293.6,93.8c0-23.3-9-45.2-25.4-61.8c-16.2-16.3-38-25.6-61.3-25.9c-1.4,0-2.7,0.7-3.5,1.8c-0.5,0.7-1.1,2.1-0.4,4
		c3.2,9.6,3.5,27.1-0.5,35.9c-1.8,0.6-3.9,0.8-6.1,0.8c-5.7,0-11.5-1.7-15.7-3c-1.3-0.4-2.5-0.7-3.4-1l-3-0.7l-1.4,2.8
		c-5.3,10.2-3.7,23.1-2.5,33.5c0.2,1.9,0.4,3.7,0.6,5.3c-3.2,1.3-10.2,2.9-19.9,2.9c-6.5,0-16.3-0.7-26.2-4.2h-0.1h-0.1
		c-0.5-0.2-1.1-0.3-1.6-0.3c-1.3,0-2.5,0.5-3.4,1.4c-1.9,1.9-2,4.8-2,8.1v0.5c0,19.3,6.3,37.9,17.9,53.2h-0.1l1.3,1.5
		c0.8,1,1.7,2.1,2.6,3.1l0.1,0.1c2.9,3.5,5.8,6.6,8.7,9.6c5.2,5.5,9.8,10.3,12.1,15.3c-0.7,3.2-1.1,6.6-1.1,9.9v3.9
		c0,2.1,0.1,4.2,0.4,6.3c-0.3,1-0.4,2.2-0.4,3.3c0,2.3,0.2,4.7,0.5,7.1c-0.4,1.1-0.5,2.4-0.5,3.8c0,10.9,3.8,21.5,10.8,29.9
		c6.2,14.4,20.3,23.7,36,23.7c15.8,0,29.9-9.4,36.1-23.9c6.9-8.4,10.7-18.9,10.7-29.7c0-1.9-0.4-3.6-1-4.9c0.7-3.1,1-6.3,1-9.6
		c0-1.5-0.2-2.9-0.7-4.1c0.3-1.9,0.5-3.8,0.6-5.7v-0.1v-0.1c0-3.6-0.4-7.1-1.2-10.6c2.4-4.7,6.8-9.3,11.7-14.6
		c2.8-3,5.8-6.1,8.7-9.6l0.1-0.1c0.9-1,1.7-2,2.5-3l1.3-1.6h-0.1C287.3,131.7,293.6,113.1,293.6,93.8z M247.7,211.3
		c0,23-18.8,41.8-41.8,41.8c-22.2,0-40.4-17.4-41.7-39.3c0.1,0.4,0.3,0.9,0.4,1.3c1,2.8,2.3,5.6,3.8,8.2s3.4,5,5.4,7.2
		c4,4.4,9,8.1,14.5,10.5c5.5,2.4,11.5,3.6,17.4,3.4c-5.8-0.7-11.5-2.4-16.7-4.9c-5.2-2.6-9.8-6.1-13.7-10.4
		c-3.8-4.3-6.8-9.3-8.8-14.7c-1-2.7-1.7-5.6-2.1-8.4c-0.1-0.5-0.1-0.9-0.2-1.4c5.8,18.5,22.5,32.8,41.6,33.6c0,0,0,0,0.1,0l0.2,4.1
		c0.6,0,1.2,0,1.8,0c16.2,0,29.4-9.2,35-22.6c2-3,3.5-6.2,4.7-9.7C247.7,210.4,247.7,210.8,247.7,211.3z M234.5,244.5
		c-6.2,9.4-17,15.4-28.6,15.4c-11.8,0-22.5-5.9-28.7-15.5c7.7,6.7,17.7,10.7,28.7,10.7C216.8,255.1,226.8,251.1,234.5,244.5z
		 M122.8,89.5c3.5,13.4,12.5,16.4,20.4,19c2.7,0.9,5.3,1.7,7.5,3c0.1,10.1,2.8,20.4,7.5,29c4.1,7.5,9.5,13.2,15.6,16.4
		c-4.3,4.7-7.7,10.3-9.7,16.7c-2.7-5.2-7.2-9.9-12.3-15.3c-2.8-3-5.8-6.1-8.6-9.5c-13.3-15.2-20.6-34.6-20.6-54.7
		C122.7,92.5,122.7,91,122.8,89.5z M176,87.8c-0.1-2.4-0.5-5.1-0.8-8c-1.2-9.5-2.6-21.2,1.6-30c0.7,0.2,1.5,0.4,2.3,0.7
		c6.6,2,17.7,5.2,26.6,1.5l0.3-0.1l0.2-0.3c5.3-9.4,5.3-28.5,1.8-40.1c10.5,2.7,37.6,14.2,49.4,33c-10.8-1.2-28.2,3.3-38.9,12.4
		l-0.8,0.7l0.8,0.8c14,13.9,23.6,35.4,25.7,57.5c-5.6,1.9-12.6,2.2-20,1.3c-0.1-1.8-0.3-3.5-0.6-5.2l-0.1-0.7l-0.8-0.1
		c-0.9-0.1-2.5-0.3-4.9,1.2c-1,0.6-2.5,1.5-4.3,2.6c-0.1,0-0.1,0-0.2-0.1l0,0c0,0,0,0,0,0c-6.1-1.7-12-4.3-17.2-7.5l-0.7-0.4
		l-0.6,0.5c-11.5,10.9-18.5,29.6-17.6,46c-0.7,0.6-1.4,1.2-2.1,1.9c-11.5-6-22.5-22.4-22.6-44.5l0-0.6l-0.5-0.3
		c-2.5-1.5-5.3-2.4-8.3-3.4c-7.7-2.6-15.6-5.2-18.9-17c21.1,6.9,45.3,3.6,50.7-1l0.4-0.3L176,87.8z M219.2,145.1
		c-4.2-1.4-8.7-2.1-13.3-2.1c-5.8,0-11.3,1.1-16.4,3.2c-0.5-3.2-0.7-6.2-0.5-9c0.1,0,0.3,0,0.4,0c0.9,0,2.3-0.1,4.1-1.2
		c6.3-3.8,19.4-12.1,26-16.4c0.5-0.3,0.8-0.6,1.1-0.9c0.5,0.1,0.9,0.2,1.4,0.2C222.3,127,220.9,136,219.2,145.1z M179.6,156.7
		c-0.1-0.7-0.2-1.5-0.2-2.2c2.6-2.1,5.5-4,8.6-5.4c0.9,4.9,2.4,10.1,3.9,15.3c-4.6-2-9.1-4.7-11.8-7.2L179.6,156.7z M177.6,156.5
		c-0.1,0-0.2-0.1-0.4-0.2c0.1-0.1,0.2-0.2,0.3-0.3C177.6,156.2,177.6,156.4,177.6,156.5z M179.3,152c-0.4-15.2,6-32.2,16.5-42.4
		c4.7,2.8,10,5.1,15.4,6.8c-6.6,4.2-14.6,9.3-19.4,12.4c-3,2-3.8,3.3-4.1,4.5c-1,4-0.8,8.7,0,13.7C184.6,148.3,181.9,150,179.3,152z
		 M221,115.2c-0.3,0.4-0.6,0.8-1,1.3c-1.2-0.2-2.5-0.5-3.7-0.8c1.1-0.6,2-1.2,2.6-1.6c1.3-0.8,2.2-1,2.9-1c0,0.3,0.1,0.6,0.1,1
		C221.5,114.4,221.3,114.8,221,115.2z M217.9,118.1c-6.7,4.4-19.3,12.4-25.5,16.1c-1.3,0.8-2.3,0.8-3.1,0.9c0,0-0.1,0-0.1,0
		c0.1-0.5,0.2-0.9,0.3-1.3c0.2-0.8,0.8-1.7,3.3-3.4c5.2-3.4,14-9,20.9-13.3C215.1,117.5,216.5,117.8,217.9,118.1z M235.8,225.2
		c-7.9,7.6-18.5,11.4-29.8,11c-22.7-1-41.8-21.8-41.8-45.5v-3.9c0-2,0.2-4.1,0.5-6.1c0,0,0,0.1,0,0.1c0,0.1,0,0.2,0.1,0.2l0,0.2
		c5.4,18.3,21.9,30.6,41,30.6c19.1,0,35.6-12.3,41-30.6l0-0.1c0-0.1,0.1-0.2,0.1-0.4c0.1-0.3,0.2-0.6,0.2-0.9
		c0.1-0.3,0.1-0.6,0.2-0.9c0-0.1,0-0.1,0.1-0.2c0.2,1.2,0.4,2.3,0.5,3.5c0.1,1.1,0.2,2.3,0.2,3.4c0,1.2-0.2,2.3-0.3,3.4
		c-0.6,4.5-1.8,8.9-3.7,13c-3.8,8.2-10.3,15-18.3,19.3c-4,2.1-8.4,3.5-12.8,4.3l-1.7,0.3c-0.6,0.1-1.1,0.2-1.7,0.2l-3.4,0.2
		c-2.2-0.1-4.5-0.3-6.7-0.8c-8.9-2-16.9-6.8-23.8-13c5.6,7.5,14.1,13,23.4,15c2.2,0.5,4.6,0.8,6.9,0.9l0.2,4.4c0.6,0,1.2,0,1.8,0
		c17.8,0,31.9-11.1,36.5-26.6c-0.9,1.4-1.8,2.8-2.9,4.1c1.7-2.4,3.2-4.9,4.5-7.5c0.6-1.4,1.2-2.8,1.7-4.3
		C247.2,208.9,243,218.3,235.8,225.2z M241,211.1c0.1-0.1,0.2-0.3,0.3-0.4C241.3,210.8,241.2,211,241,211.1z M245.4,178.4
		c-0.1,0.3-0.2,0.6-0.3,1c-0.1,0.3-0.1,0.6-0.2,0.8l-0.1,0.2v0.1c0,0.1-0.1,0.2-0.1,0.3c-5.2,17.4-20.8,29.1-39,29.1
		c-18.2,0-33.8-11.7-39-29.1c0-0.2-0.1-0.3-0.1-0.4l-0.1-0.2c-0.2-0.6-0.4-1.1-0.5-1.7c-0.2-0.7-0.4-1.3-0.6-2
		c1.8-7.2,5.4-13.5,10.3-18.6c0.7,0.3,1.3,0.5,2,0.8c-2.3,4.5-3.1,13.6-1.8,18.4l1.9-0.5c-1.2-4.8-0.2-13.6,1.8-17.3l0,0
		c3.3,2.7,8.2,5.5,13,7.5c2.3,7.7,4.4,14.9,4.4,20.1h2c0-5.6-2.2-13.2-4.6-21.2c-1.7-5.7-3.5-11.8-4.5-17.5c5-2.1,10.4-3.2,16-3.2
		c4.5,0,8.8,0.7,12.9,2.1c-0.7,3.4-1.4,6.8-2.1,10.1c-2.4,11.1-4.6,21.5-4.6,29.7h2c0-8,2.2-18.4,4.5-29.3c0.7-3.3,1.4-6.6,2.1-9.9
		c12.2,4.7,21.9,14.9,25.5,28l0,0C245.9,176.6,245.6,177.5,245.4,178.4z M221.1,145.7c1.8-9.2,3.1-18.3,2.9-26.6
		c7.7,1,15.1,0.5,20.9-1.4c2.7,2.3,6.7,7.2,11.1,13.6l1.7-1.1c-2.7-4-7.8-11-11.6-14.1c-2.1-22.3-11.6-44-25.6-58.3
		c11.1-9,28.7-12.9,38.5-11l2.1,0.4l-1.1-1.9c-9.6-17.2-31.7-28.7-45.1-33.7c41.4,4.7,73.6,39.9,73.6,82.5
		c0,20.2-7.3,39.7-20.6,54.8c-2.8,3.4-5.7,6.5-8.5,9.5c-4.9,5.2-9.3,9.9-12,14.8C243.3,160.3,233.4,150.3,221.1,145.7z"/>
	<path d="M93,196.6l1.1-0.3l0.8-0.8c1.4-1.4,1.6-3.4,1.5-6.9c-0.1-2-0.3-4.2-0.5-5.4l-1.1-5.4l-4.3,2.4c-1.6-3.6-2.3-6.6-3.3-10.2
		c-0.2-0.7-0.4-1.4-0.5-2.1l-1.1-4.2l-4.2,1.7c-9.1,3.6-20.4,6.7-33.2,10.1l-7.2,1.9l5.6,4.9c6.4,5.6,15.1,12.4,26,14.3
		c2.9,0.6,7.5,0.8,10.9,0.8C86.4,197.4,90.4,197.3,93,196.6z M91.4,192c-3.2,0.6-9.5,0.6-14.1,0.3c4.5-1.9,11-5.1,13.9-6.6
		C91.5,187.8,91.6,191,91.4,192z M73.2,191.7c-7-1.3-13.8-5-21.8-11.9c11.2-3,22-6.1,30.8-9.4c0.1,0.5,0.3,1,0.4,1.5
		c1.1,4.2,2.1,8.2,4.8,13.4C82.8,187.6,75.9,190.9,73.2,191.7z"/>
	<path d="M86.5,244.3l-5.1-2.8l-0.6,5.9c-0.8,7.5,8.8,34,19.8,44.1l2.4,2.2l2.6-2c7.6-5.7,21.6-22,24.5-29.5l1.9-4.9l-5.3-0.5
		C116.4,255.9,96,249.1,86.5,244.3z M124.9,261.5c-3.2,6.5-14.4,19.9-21.6,25.6c-9.1-8.8-16.9-30.2-17.6-37.8
		C95.7,254.1,114.3,260.2,124.9,261.5z"/>
	<path d="M45,213.5l-4.4,0.8c-0.4,0.1-1.3,0.2-3.2,0.2c-6.1,0-17.4-1.2-23.2-2.9l-8.9-2.5l4.2,8.2c3.8,7.4,18.4,20,24.1,22.6
		l3.1,1.4l1.9-2.8c2.9-4.4,7-16,6.7-20.5L45,213.5z M40.3,219.4c-0.4,3.8-3.1,11.8-5.3,15.6c-4.9-2.7-15.4-11.8-19.7-17.9
		C22.8,218.7,34.9,219.9,40.3,219.4z"/>
	<path d="M69.4,267.6l-0.7-3.9l-3.8,0.6c-3.1,0.5-8.6,6-9.1,9.1l-0.3,1.8l1.1,1.4c2.2,2.7,7.4,4.7,10.6,4.7c0.1,0,0.3,0,0.4,0
		l4.7-0.2l-1-4.6C70.6,273.2,69.9,270.2,69.4,267.6z M60.9,273.9c0.6-1.1,2.6-3.2,3.9-4.1c0.3,1.3,0.6,2.7,0.9,4.2
		c0.2,0.7,0.3,1.5,0.5,2.3C64.4,275.9,62,274.9,60.9,273.9z"/>
	<path d="M241.5,198.4c-8.6,10.5-21.7,17.1-35.9,17.1l0.4,7.3C222.1,222.7,236,212.7,241.5,198.4z"/>
	<path d="M206.1,244.9H206h-0.1l0.2,4.7c0.6,0,1.2,0,1.8,0c17.8,0,31.9-10.7,36.5-25.7C236.4,236.6,222.3,244.9,206.1,244.9z"/>
	<path d="M249.2,148.4c-2.5,2.6-5.1,5.4-7.5,8.2c-1.3,1.5-1.1,3.7,0.4,5c0.7,0.5,1.5,0.8,2.3,0.8c1.1,0,2-0.4,2.7-1.2
		c2.2-2.6,4.8-5.3,7.2-7.9c1.4-1.4,1.3-3.7-0.1-5C252.8,146.9,250.5,147,249.2,148.4z"/>
	<path d="M262.6,144c12.1-13.8,18.8-31.5,18.8-49.9c0-1.9-1.6-3.5-3.5-3.5c-1.9,0-3.5,1.6-3.5,3.5c0,16.7-6,32.8-17,45.3
		c-1.3,1.5-1.2,3.7,0.3,5c0.6,0.6,1.5,0.9,2.3,0.9C261,145.3,262,144.8,262.6,144z"/>
</g>
</svg>
